<svg width="24" height="25" viewBox="0 0 24 25" fill="none" xmlns="http://www.w3.org/2000/svg">
<path d="M7.05305 4.13616C5.68305 5.51616 5.68305 7.73616 7.05305 9.10616L15.543 17.5862C16.123 18.1762 16.123 19.1362 15.543 19.7062C14.953 20.2962 14.003 20.2962 13.413 19.7062L9.17305 15.4662L10.233 14.4062L6.70305 10.8662L6.34305 11.2262L4.93305 9.80616C4.54305 9.41616 3.91305 9.41616 3.50305 9.80616L2.10305 11.2262C1.71305 11.6362 1.71305 12.2462 2.10305 12.6362L3.50305 14.0462L3.16305 14.4062L6.70305 17.9362L7.76305 16.8762L12.003 21.1362C13.373 22.4862 15.583 22.4862 16.953 21.1362C18.323 19.7562 18.323 17.5362 16.953 16.1762L8.46305 7.68616C7.88305 7.09616 7.88305 6.13616 8.46305 5.56616C9.05305 4.97616 10.003 4.97616 10.593 5.56616L14.833 9.80616L13.773 10.8662L17.303 14.4062L17.663 14.0462L19.073 15.4662C19.463 15.8562 20.103 15.8562 20.503 15.4662L21.903 14.0462C22.293 13.6362 22.293 13.0262 21.903 12.6362L20.503 11.2262L20.843 10.8662L17.303 7.33616L16.243 8.39616L12.003 4.13616C10.633 2.78616 8.42305 2.78616 7.05305 4.13616ZM2.81305 11.9262L4.22305 10.5162L5.64305 11.9262L4.22305 13.3462M18.363 13.3462L19.783 11.9262L21.193 13.3462L19.783 14.7562L18.363 13.3462Z" fill="black"/>
</svg>
