<svg width="24" height="25" viewBox="0 0 24 25" fill="none" xmlns="http://www.w3.org/2000/svg">
<path d="M17.9 18.0264C17.64 17.2264 16.89 16.6364 16 16.6364H15V13.6364C15 13.3711 14.8946 13.1168 14.7071 12.9292C14.5196 12.7417 14.2652 12.6364 14 12.6364H8V10.6364H10C10.2652 10.6364 10.5196 10.531 10.7071 10.3435C10.8946 10.1559 11 9.90157 11 9.63635V7.63635H13C13.5304 7.63635 14.0391 7.42564 14.4142 7.05057C14.7893 6.67549 15 6.16679 15 5.63635V5.22635C17.93 6.40635 20 9.27635 20 12.6364C20 14.7164 19.2 16.6064 17.9 18.0264ZM11 20.5664C7.05 20.0764 4 16.7164 4 12.6364C4 12.0164 4.08 11.4164 4.21 10.8464L9 15.6364V16.6364C9 17.1668 9.21071 17.6755 9.58579 18.0506C9.96086 18.4256 10.4696 18.6364 11 18.6364M12 2.63635C10.6868 2.63635 9.38642 2.89501 8.17317 3.39756C6.95991 3.9001 5.85752 4.6367 4.92893 5.56528C3.05357 7.44065 2 9.98419 2 12.6364C2 15.2885 3.05357 17.8321 4.92893 19.7074C5.85752 20.636 6.95991 21.3726 8.17317 21.8751C9.38642 22.3777 10.6868 22.6364 12 22.6364C14.6522 22.6364 17.1957 21.5828 19.0711 19.7074C20.9464 17.8321 22 15.2885 22 12.6364C22 11.3231 21.7413 10.0228 21.2388 8.80952C20.7362 7.59626 19.9997 6.49387 19.0711 5.56528C18.1425 4.6367 17.0401 3.9001 15.8268 3.39756C14.6136 2.89501 13.3132 2.63635 12 2.63635Z" fill="black"/>
</svg>
